<svg width="40" height="22" viewBox="0 0 40 22" fill="none" xmlns="http://www.w3.org/2000/svg">
    <g clip-path="url(#clip0_263_4745)">
        <path d="M15.0903 15.5691L10.1465 12.7101L13.7109 6.52401C13.7342 6.4842 13.7753 6.41146 13.7109 6.29891C13.6465 6.18636 13.5616 6.18636 13.5164 6.18636H6.38623V0.465576H13.5164C15.6616 0.465576 17.5821 1.57597 18.6547 3.43715C19.7273 5.29832 19.7273 7.52048 18.6547 9.38165L15.0903 15.5677V15.5691Z" fill="#5C5C5C"/>
        <path d="M12.9725 21.5001H5.90814C3.76294 21.5001 1.84239 20.3897 0.769784 18.5285C-0.302819 16.6674 -0.302819 14.4452 0.769784 12.584L4.33417 6.39795L9.27663 9.25697L5.71225 15.443C5.68896 15.4829 5.64787 15.5556 5.71225 15.6681C5.77663 15.7807 5.86157 15.7807 5.90677 15.7807H12.9712V21.5001H12.9725Z" fill="#D1D5DB"/>
        <path d="M26.3837 9.62451C26.4809 9.62451 26.5165 9.6849 26.5165 9.77V10.0363C26.5165 10.1571 26.5289 10.2298 26.4083 10.4L23.2193 14.8059H26.6261V15.4963H22.3864C22.2891 15.4963 22.2535 15.4482 22.2535 15.3631V15.0845C22.2535 14.9637 22.2412 14.891 22.3617 14.7208L25.5275 10.3149H22.3015V9.62451H26.385H26.3837Z" fill="#5C5C5C"/>
        <path d="M32.6767 9.62451H33.5096V14.7208C33.5096 14.9514 33.437 15.0955 33.2069 15.1929L32.6028 15.4345C32.3247 15.5429 32.2041 15.5676 31.9028 15.5676H30.0548C29.5959 15.5676 29.3904 15.4826 29.1247 15.2163L28.811 14.902C28.485 14.5753 28.437 14.4545 28.437 13.9096V9.62451H29.2699V13.9343C29.2699 14.1278 29.3055 14.2006 29.4507 14.3461L29.7288 14.6247C29.8863 14.7702 29.9343 14.7949 30.1754 14.7949H31.8548C31.9274 14.7949 32 14.7826 32.0603 14.7578L32.6041 14.5396C32.6521 14.5149 32.6767 14.4916 32.6767 14.4312V9.62588V9.62451Z" fill="#5C5C5C"/>
        <path d="M36.5671 12.8569C36.1932 12.8213 35.9028 12.7238 35.7096 12.5426C35.5041 12.3491 35.3959 12.0471 35.3959 11.575V11.1879C35.3959 10.7034 35.4439 10.5469 35.7699 10.2189L36.0836 9.90459C36.3617 9.63832 36.5671 9.55322 37.0261 9.55322H38.2576C38.6808 9.55322 38.8617 9.59028 39.1521 9.77146L39.8288 10.1832L39.5028 10.7762L38.6808 10.4015C38.5124 10.3287 38.3904 10.304 38.174 10.304H37.1233C36.8822 10.304 36.8329 10.3287 36.6767 10.4742L36.3863 10.7652C36.2411 10.9107 36.2055 10.9834 36.2055 11.1769V11.6244C36.2055 11.9387 36.2904 12.0485 36.6288 12.0842L38.8397 12.2901C39.2987 12.3381 39.5644 12.4356 39.7576 12.6291C39.9507 12.8226 40.0356 13.1136 40.0356 13.5254V13.9124C40.0356 14.4573 39.9877 14.5781 39.6617 14.9048L39.348 15.2191C39.0822 15.4854 38.8767 15.5705 38.4178 15.5705H36.8713C36.448 15.5705 36.2671 15.5334 35.9658 15.3522L35.2891 14.9405L35.6151 14.3475L36.437 14.7346C36.6055 14.8073 36.7274 14.8197 36.9439 14.8197H38.3096C38.5507 14.8197 38.6 14.795 38.7562 14.6495L39.0466 14.3585C39.1918 14.213 39.2274 14.1403 39.2274 13.9468V13.5226C39.2274 13.2083 39.1425 13.0985 38.8041 13.0628L36.5685 12.8569H36.5671Z" fill="#5C5C5C"/>
    </g>
    <defs>
        <clipPath id="clip0_263_4745">
            <rect width="40" height="21" fill="white" transform="translate(0 0.5)"/>
        </clipPath>
    </defs>
</svg>